# xmcd CD database file
#
# Track frame offsets:
#	150
#	51734
#	113934
#	169031
#	234835
#	258986
#
# Disc length: 3766 seconds
#
# Revision: 0
# Processed by: cddbd v1.5.1PL0 Copyright (c) Steve Scherf et al.
# Submitted via: CDex 1.51
#
DISCID=4c0eb406
DTITLE=ギャラクシーエンジェル - Angel Scramble Junction
DYEAR=2004
DGENRE=Anime
TTITLE0=Angel Scramble Junction　ケーキ編
TTITLE1=Angel Scramble Junction　通販編
TTITLE2=Angel Scramble Junction　着ぐるみ編
TTITLE3=Angel Scramble Junction　浮浪編
TTITLE4=花いろ日記 (ambient trance mix)
TTITLE5=b-b-Love! (extended chu-chu mix)
EXTD=YEAR: 2004/9/24
EXTT0=
EXTT1=
EXTT2=
EXTT3=
EXTT4=
EXTT5=
PLAYORDER=
